<mxfile host="Electron" modified="2024-10-08T12:57:36.607Z" agent="Mozilla/5.0 (Windows NT 10.0; Win64; x64) AppleWebKit/537.36 (KHTML, like Gecko) draw.io/21.1.2 Chrome/106.0.5249.199 Electron/21.4.3 Safari/537.36" etag="ykdpYRgQ5QPInfvRNMGZ" version="21.1.2" type="device">
  <diagram name="Page-1" id="70JOLZ4onhagYdV6BRQ6">
    <mxGraphModel dx="1579" dy="689" grid="1" gridSize="10" guides="1" tooltips="1" connect="1" arrows="1" fold="1" page="0" pageScale="1" pageWidth="850" pageHeight="1100" math="0" shadow="0">
      <root>
        <mxCell id="0" />
        <mxCell id="1" parent="0" />
        <mxCell id="ZkHAURSGsxtJdD5gN7dl-1" value="GameManager" style="swimlane;fontStyle=1;align=center;verticalAlign=top;childLayout=stackLayout;horizontal=1;startSize=26;horizontalStack=0;resizeParent=1;resizeParentMax=0;resizeLast=0;collapsible=1;marginBottom=0;whiteSpace=wrap;html=1;fillColor=#fff2cc;strokeColor=#d6b656;" parent="1" vertex="1">
          <mxGeometry x="100" y="300" width="200" height="78" as="geometry" />
        </mxCell>
        <mxCell id="ZkHAURSGsxtJdD5gN7dl-2" value="set_lupa_viewport(%LupaViewport)" style="text;strokeColor=#d6b656;fillColor=#fff2cc;align=left;verticalAlign=top;spacingLeft=4;spacingRight=4;overflow=hidden;rotatable=0;points=[[0,0.5],[1,0.5]];portConstraint=eastwest;whiteSpace=wrap;html=1;" parent="ZkHAURSGsxtJdD5gN7dl-1" vertex="1">
          <mxGeometry y="26" width="200" height="26" as="geometry" />
        </mxCell>
        <mxCell id="yn5inBPS0i1JjKD6rWJs-5" value="get_player_position()" style="text;strokeColor=#d6b656;fillColor=#fff2cc;align=left;verticalAlign=top;spacingLeft=4;spacingRight=4;overflow=hidden;rotatable=0;points=[[0,0.5],[1,0.5]];portConstraint=eastwest;whiteSpace=wrap;html=1;" vertex="1" parent="ZkHAURSGsxtJdD5gN7dl-1">
          <mxGeometry y="52" width="200" height="26" as="geometry" />
        </mxCell>
        <mxCell id="yn5inBPS0i1JjKD6rWJs-1" value="main.gd (Node)" style="swimlane;fontStyle=1;align=center;verticalAlign=top;childLayout=stackLayout;horizontal=1;startSize=26;horizontalStack=0;resizeParent=1;resizeParentMax=0;resizeLast=0;collapsible=1;marginBottom=0;whiteSpace=wrap;html=1;fillColor=#fff2cc;strokeColor=#d6b656;" vertex="1" parent="1">
          <mxGeometry x="-160" y="300" width="200" height="78" as="geometry" />
        </mxCell>
        <mxCell id="yn5inBPS0i1JjKD6rWJs-2" value="func _ready():" style="text;strokeColor=#d6b656;fillColor=#fff2cc;align=left;verticalAlign=top;spacingLeft=4;spacingRight=4;overflow=hidden;rotatable=0;points=[[0,0.5],[1,0.5]];portConstraint=eastwest;whiteSpace=wrap;html=1;" vertex="1" parent="yn5inBPS0i1JjKD6rWJs-1">
          <mxGeometry y="26" width="200" height="26" as="geometry" />
        </mxCell>
        <mxCell id="yn5inBPS0i1JjKD6rWJs-4" value="func _process(_delta: float) -&amp;gt; void:" style="text;strokeColor=#d6b656;fillColor=#fff2cc;align=left;verticalAlign=top;spacingLeft=4;spacingRight=4;overflow=hidden;rotatable=0;points=[[0,0.5],[1,0.5]];portConstraint=eastwest;whiteSpace=wrap;html=1;" vertex="1" parent="yn5inBPS0i1JjKD6rWJs-1">
          <mxGeometry y="52" width="200" height="26" as="geometry" />
        </mxCell>
        <mxCell id="yn5inBPS0i1JjKD6rWJs-3" style="edgeStyle=orthogonalEdgeStyle;rounded=0;orthogonalLoop=1;jettySize=auto;html=1;curved=1;" edge="1" parent="1" source="yn5inBPS0i1JjKD6rWJs-2" target="ZkHAURSGsxtJdD5gN7dl-2">
          <mxGeometry relative="1" as="geometry" />
        </mxCell>
        <mxCell id="yn5inBPS0i1JjKD6rWJs-6" style="edgeStyle=orthogonalEdgeStyle;rounded=0;orthogonalLoop=1;jettySize=auto;html=1;curved=1;" edge="1" parent="1" source="yn5inBPS0i1JjKD6rWJs-4" target="yn5inBPS0i1JjKD6rWJs-5">
          <mxGeometry relative="1" as="geometry" />
        </mxCell>
        <mxCell id="yn5inBPS0i1JjKD6rWJs-7" value="GameManager" style="swimlane;fontStyle=1;align=center;verticalAlign=top;childLayout=stackLayout;horizontal=1;startSize=26;horizontalStack=0;resizeParent=1;resizeParentMax=0;resizeLast=0;collapsible=1;marginBottom=0;whiteSpace=wrap;html=1;fillColor=#fff2cc;strokeColor=#d6b656;" vertex="1" parent="1">
          <mxGeometry x="360" y="300" width="200" height="52" as="geometry" />
        </mxCell>
        <mxCell id="yn5inBPS0i1JjKD6rWJs-8" value="func reset_game()" style="text;strokeColor=#d6b656;fillColor=#fff2cc;align=left;verticalAlign=top;spacingLeft=4;spacingRight=4;overflow=hidden;rotatable=0;points=[[0,0.5],[1,0.5]];portConstraint=eastwest;whiteSpace=wrap;html=1;" vertex="1" parent="yn5inBPS0i1JjKD6rWJs-7">
          <mxGeometry y="26" width="200" height="26" as="geometry" />
        </mxCell>
        <mxCell id="yn5inBPS0i1JjKD6rWJs-10" style="edgeStyle=orthogonalEdgeStyle;shape=connector;curved=1;rounded=0;orthogonalLoop=1;jettySize=auto;html=1;labelBackgroundColor=default;strokeColor=default;fontFamily=Helvetica;fontSize=11;fontColor=default;endArrow=classic;" edge="1" parent="1" source="ZkHAURSGsxtJdD5gN7dl-2" target="yn5inBPS0i1JjKD6rWJs-8">
          <mxGeometry relative="1" as="geometry" />
        </mxCell>
        <mxCell id="yn5inBPS0i1JjKD6rWJs-11" value="GameManager" style="swimlane;fontStyle=1;align=center;verticalAlign=top;childLayout=stackLayout;horizontal=1;startSize=26;horizontalStack=0;resizeParent=1;resizeParentMax=0;resizeLast=0;collapsible=1;marginBottom=0;whiteSpace=wrap;html=1;fillColor=#fff2cc;strokeColor=#d6b656;" vertex="1" parent="1">
          <mxGeometry x="620" y="300" width="240" height="100" as="geometry" />
        </mxCell>
        <mxCell id="yn5inBPS0i1JjKD6rWJs-12" value="_spawn_bugs()" style="text;strokeColor=#d6b656;fillColor=#fff2cc;align=left;verticalAlign=top;spacingLeft=4;spacingRight=4;overflow=hidden;rotatable=0;points=[[0,0.5],[1,0.5]];portConstraint=eastwest;whiteSpace=wrap;html=1;" vertex="1" parent="yn5inBPS0i1JjKD6rWJs-11">
          <mxGeometry y="26" width="240" height="26" as="geometry" />
        </mxCell>
        <mxCell id="yn5inBPS0i1JjKD6rWJs-14" value="_set_game_state(GameState.RUNNING)&lt;br&gt;&amp;nbsp; &amp;nbsp; game_state_changed.emit(game_state)" style="text;strokeColor=#d6b656;fillColor=#fff2cc;align=left;verticalAlign=top;spacingLeft=4;spacingRight=4;overflow=hidden;rotatable=0;points=[[0,0.5],[1,0.5]];portConstraint=eastwest;whiteSpace=wrap;html=1;" vertex="1" parent="yn5inBPS0i1JjKD6rWJs-11">
          <mxGeometry y="52" width="240" height="48" as="geometry" />
        </mxCell>
        <mxCell id="yn5inBPS0i1JjKD6rWJs-13" style="edgeStyle=orthogonalEdgeStyle;shape=connector;curved=1;rounded=0;orthogonalLoop=1;jettySize=auto;html=1;labelBackgroundColor=default;strokeColor=default;fontFamily=Helvetica;fontSize=11;fontColor=default;endArrow=classic;" edge="1" parent="1" source="yn5inBPS0i1JjKD6rWJs-8" target="yn5inBPS0i1JjKD6rWJs-12">
          <mxGeometry relative="1" as="geometry" />
        </mxCell>
        <mxCell id="yn5inBPS0i1JjKD6rWJs-15" style="edgeStyle=orthogonalEdgeStyle;shape=connector;curved=1;rounded=0;orthogonalLoop=1;jettySize=auto;html=1;labelBackgroundColor=default;strokeColor=default;fontFamily=Helvetica;fontSize=11;fontColor=default;endArrow=classic;" edge="1" parent="1" source="yn5inBPS0i1JjKD6rWJs-8" target="yn5inBPS0i1JjKD6rWJs-14">
          <mxGeometry relative="1" as="geometry" />
        </mxCell>
        <mxCell id="yn5inBPS0i1JjKD6rWJs-16" value="GameManager" style="swimlane;fontStyle=1;align=center;verticalAlign=top;childLayout=stackLayout;horizontal=1;startSize=26;horizontalStack=0;resizeParent=1;resizeParentMax=0;resizeLast=0;collapsible=1;marginBottom=0;whiteSpace=wrap;html=1;fillColor=#fff2cc;strokeColor=#d6b656;" vertex="1" parent="1">
          <mxGeometry x="930" y="300" width="260" height="52" as="geometry" />
        </mxCell>
        <mxCell id="yn5inBPS0i1JjKD6rWJs-17" value="func _spawn_bug(bug_scene: PackedScene)" style="text;strokeColor=#d6b656;fillColor=#fff2cc;align=left;verticalAlign=top;spacingLeft=4;spacingRight=4;overflow=hidden;rotatable=0;points=[[0,0.5],[1,0.5]];portConstraint=eastwest;whiteSpace=wrap;html=1;" vertex="1" parent="yn5inBPS0i1JjKD6rWJs-16">
          <mxGeometry y="26" width="260" height="26" as="geometry" />
        </mxCell>
        <mxCell id="yn5inBPS0i1JjKD6rWJs-19" style="edgeStyle=orthogonalEdgeStyle;shape=connector;curved=1;rounded=0;orthogonalLoop=1;jettySize=auto;html=1;labelBackgroundColor=default;strokeColor=default;fontFamily=Helvetica;fontSize=11;fontColor=default;endArrow=classic;" edge="1" parent="1" source="yn5inBPS0i1JjKD6rWJs-12" target="yn5inBPS0i1JjKD6rWJs-17">
          <mxGeometry relative="1" as="geometry" />
        </mxCell>
        <mxCell id="yn5inBPS0i1JjKD6rWJs-20" value="GameManager" style="swimlane;fontStyle=1;align=center;verticalAlign=top;childLayout=stackLayout;horizontal=1;startSize=26;horizontalStack=0;resizeParent=1;resizeParentMax=0;resizeLast=0;collapsible=1;marginBottom=0;whiteSpace=wrap;html=1;fillColor=#fff2cc;strokeColor=#d6b656;" vertex="1" parent="1">
          <mxGeometry x="1260" y="300" width="260" height="70" as="geometry" />
        </mxCell>
        <mxCell id="yn5inBPS0i1JjKD6rWJs-21" value="spawn_scene(bug)&lt;br&gt;&amp;nbsp; &amp;nbsp;&amp;nbsp;&lt;font color=&quot;#ff4603&quot;&gt;lupa_viewport.add_child(scene)&lt;/font&gt;" style="text;strokeColor=#d6b656;fillColor=#fff2cc;align=left;verticalAlign=top;spacingLeft=4;spacingRight=4;overflow=hidden;rotatable=0;points=[[0,0.5],[1,0.5]];portConstraint=eastwest;whiteSpace=wrap;html=1;" vertex="1" parent="yn5inBPS0i1JjKD6rWJs-20">
          <mxGeometry y="26" width="260" height="44" as="geometry" />
        </mxCell>
        <mxCell id="yn5inBPS0i1JjKD6rWJs-22" style="edgeStyle=orthogonalEdgeStyle;shape=connector;curved=1;rounded=0;orthogonalLoop=1;jettySize=auto;html=1;labelBackgroundColor=default;strokeColor=default;fontFamily=Helvetica;fontSize=11;fontColor=default;endArrow=classic;" edge="1" parent="1" source="yn5inBPS0i1JjKD6rWJs-17" target="yn5inBPS0i1JjKD6rWJs-21">
          <mxGeometry relative="1" as="geometry" />
        </mxCell>
        <mxCell id="yn5inBPS0i1JjKD6rWJs-23" value="ui.gd" style="swimlane;fontStyle=1;align=center;verticalAlign=top;childLayout=stackLayout;horizontal=1;startSize=26;horizontalStack=0;resizeParent=1;resizeParentMax=0;resizeLast=0;collapsible=1;marginBottom=0;whiteSpace=wrap;html=1;fillColor=#fff2cc;strokeColor=#d6b656;" vertex="1" parent="1">
          <mxGeometry x="930" y="440" width="410" height="52" as="geometry" />
        </mxCell>
        <mxCell id="yn5inBPS0i1JjKD6rWJs-24" value="func update_win_label_visibility(game_state: GameManager.GameState)" style="text;strokeColor=#d6b656;fillColor=#fff2cc;align=left;verticalAlign=top;spacingLeft=4;spacingRight=4;overflow=hidden;rotatable=0;points=[[0,0.5],[1,0.5]];portConstraint=eastwest;whiteSpace=wrap;html=1;" vertex="1" parent="yn5inBPS0i1JjKD6rWJs-23">
          <mxGeometry y="26" width="410" height="26" as="geometry" />
        </mxCell>
        <mxCell id="yn5inBPS0i1JjKD6rWJs-26" style="edgeStyle=orthogonalEdgeStyle;shape=connector;curved=1;rounded=0;orthogonalLoop=1;jettySize=auto;html=1;labelBackgroundColor=default;strokeColor=default;fontFamily=Helvetica;fontSize=11;fontColor=default;endArrow=classic;" edge="1" parent="1" source="yn5inBPS0i1JjKD6rWJs-14" target="yn5inBPS0i1JjKD6rWJs-24">
          <mxGeometry relative="1" as="geometry" />
        </mxCell>
      </root>
    </mxGraphModel>
  </diagram>
</mxfile>
